# xmcd
#
# Track frame offsets:
#	150
#	15153
#	29335
#	42282
#	52793
#	63162
#	76930
#	93370
#	103737
#	119155
#	130440
#	143100
#	155509
#	168049
#
# Disc length: 2431 seconds
#
# Revision: 1
# Processed by: cddbd v1.5.2PL0 Copyright (c) Steve Scherf et al.
# Submitted via: audiograbber 1.83.01
#
DISCID=ab097d0e
DTITLE=Edson and Hudson - Na Moda do Brasil ao Vivo
DYEAR=2007
DGENRE=Sertaneja
TTITLE0=Viva a Vida!
TTITLE1=As Andorinhas
TTITLE2=Bicho Bom é Mulher
TTITLE3=Do Mundo Nada se Leva 
TTITLE4=O Doutor e a Empregada
TTITLE5=Viola Está Chorando
TTITLE6=Vá Pro Inferno com Seu Amor
TTITLE7=Quebradas da Noite
TTITLE8=Blusa Vermelha
TTITLE9=Estrada da Vida
TTITLE10=Ainda Ontem Chorei de Saudade
TTITLE11=Saudade de Minha Terra
TTITLE12=Bobeou... a Gente Pimba
TTITLE13=Hoje Eu Não Posso Ir
EXTD=
EXTT0=
EXTT1=
EXTT2=
EXTT3=
EXTT4=
EXTT5=
EXTT6=
EXTT7=
EXTT8=
EXTT9=
EXTT10=
EXTT11=
EXTT12=
EXTT13=
PLAYORDER=
